<svg width="1825" height="481" viewBox="0 0 1825 481" fill="none" xmlns="http://www.w3.org/2000/svg">
<g clip-path="url(#clip0_65_1001)">
<mask id="mask0_65_1001" style="mask-type:luminance" maskUnits="userSpaceOnUse" x="0" y="0" width="1825" height="481">
<path d="M0 0H1825V481H0V0Z" fill="white"/>
</mask>
<g mask="url(#mask0_65_1001)">
<path d="M999.761 10.4688C1013.92 9.99882 1028.64 8.82982 1044.93 13.8088C1074.63 22.8888 1088.92 44.0018 1095.15 67.7698C1099.21 83.2658 1099.94 100.223 1099.62 116.131C1116.75 103.819 1134.94 95.3498 1158.42 91.2268L1159.75 90.9968C1213.2 81.9478 1255.35 95.2998 1295.96 127.15C1322.3 107.033 1348.65 93.8178 1383.94 89.5918C1427.93 84.3218 1470.58 89.9968 1508.08 115.788C1520.26 106.742 1532.59 100.902 1545.91 98.2348C1560.45 95.3248 1575.44 96.3388 1591.71 100.161C1649.27 77.4608 1718.73 91.2638 1763.43 133.815C1822.64 190.188 1835.49 290.563 1775.14 352.935C1741.57 387.639 1702.11 395.769 1659.69 397.091C1659.9 422.203 1648.22 440.142 1630.96 450.986C1614.1 461.576 1592.49 465.131 1572.31 463.679C1547.05 461.86 1526.29 453.205 1511.83 437.766C1500.36 425.526 1493.52 409.729 1491.11 391.417C1484.15 393.991 1476.88 396.104 1471.27 397.471V397.47C1420.06 410.218 1365.91 402.603 1320.2 376.229C1265.24 408.873 1199.79 414.625 1138.48 400.459L1136.98 400.109C1126.51 397.631 1115.23 392.353 1106.18 387.945C1070.31 402.322 1029.16 400.705 995.347 380.501C947.422 408.043 885.287 403.82 836.486 387.339C835.4 387.797 834.31 388.244 833.216 388.681L833.203 388.687C801.184 401.393 774.399 399.108 744.659 386.954C738.129 389.463 731.859 391.667 725.253 393.939L724.614 394.159L723.952 394.291C684.51 402.138 656.344 395.585 622.584 381.393C586.846 404.439 545 401.063 508.421 389.084C506.992 389.706 505.557 390.313 504.116 390.904L504.104 390.908L504.094 390.913C487.274 397.75 472.277 400.157 457.329 398.963C443.904 397.891 431.017 393.948 417.505 388.472C397.402 397.311 377.902 402.129 358.137 402.199C339.75 402.264 321.6 398.217 302.98 390.058C282.249 423.1 257.951 448.283 216.658 461.184C188.592 469.952 155.634 473.11 124.167 468.659C92.7197 464.212 62.0417 452.046 39.4417 429.436C17.1847 407.17 13.8917 372.005 28.9277 345.426C32.1317 339.745 36.5677 334.797 40.7917 330.61C42.3275 329.097 43.8887 327.61 45.4747 326.15C31.3967 311.398 21.8327 297.701 15.1477 274.401L15.1387 274.374L15.1317 274.347C5.29111 239.297 9.71271 201.778 27.4317 169.976L27.4387 169.963L27.4457 169.949C69.6957 94.6548 171.933 66.8588 247.371 105.249C263.891 94.9608 286.214 89.5688 307.864 88.2458C328.36 86.9928 349.779 89.2918 366.979 95.7058C383.838 70.4788 414.355 64.8758 438.436 64.9238C452.107 64.9498 464.825 66.7608 474.065 68.5368C476.05 68.9178 477.883 69.3008 479.541 69.6658C479.943 68.4329 480.373 67.209 480.829 65.9948C483.423 59.1048 488.097 49.3268 496.148 43.1398C527.776 12.5588 584.488 13.4058 614.728 53.6688C619.021 58.0558 621.976 64.3728 624.088 70.0158C626.452 76.3338 628.331 83.4258 629.78 89.9058C630.763 94.3339 631.636 98.786 632.396 103.258C639.166 101.511 645.95 99.8236 652.75 98.1948C660.996 96.2248 669.793 94.2378 677.503 92.7428C680.689 92.1248 683.862 91.5558 686.825 91.1108C686.805 88.5692 686.798 86.0275 686.804 83.4858V83.4518L686.805 83.4178C687.15 45.1598 713.255 21.7158 743.512 13.8658C773.306 6.13582 809.065 12.8468 832.13 36.0998C849.643 53.7568 853.042 76.1008 853.524 96.7248C882.102 87.0408 909.362 84.9208 939.228 92.3838C937.992 75.2018 938.92 59.1878 945.172 45.7258C953.715 27.3308 970.949 15.9638 998.177 10.6478L998.962 10.4948L999.761 10.4688Z" fill="#0377D9" stroke="white" stroke-width="20"/>
<path d="M761.786 56.3493C781.356 54.9463 803.86 56.3494 803.906 81.3704C803.966 113.832 803.427 146.283 803.687 178.75C803.78 190.405 804.376 202.449 802.573 213.958C821.127 164.426 859.587 132.709 914.503 138.116C960.231 142.618 980.781 175.643 976.473 219.583C971.056 274.963 906.267 276.272 863.782 271.149C883.499 295.611 899.321 298.076 930.576 291.701C941.21 289.531 961.58 280.057 970.686 289.415C977.853 296.778 980.121 320.904 970.866 327.953C947.657 344.9 917.402 345.417 889.895 343.888C844.564 339.481 817.333 312.994 803.349 270.968C803.687 279.719 804.604 286.754 805.601 296.538C806.64 306.746 812.676 324.375 811.19 334.551C810.729 337.702 804.643 341.381 801.133 342.362C788.638 345.852 771.685 345.11 760.106 338.953C751.57 334.415 748.727 319.981 746.13 311.083C725.249 345.107 685.455 351.234 650.606 334.919C599.336 310.916 583.74 237.567 607.88 188.677C618.04 167.83 636.061 151.869 657.982 144.301C685.374 135.058 712.309 138.107 737.898 150.763C737.981 124.592 736.389 99.5253 736.807 73.2683C736.991 72.9277 737.179 72.589 737.371 72.2523C743.322 61.8223 750.801 59.3773 761.786 56.3493Z" fill="white"/>
<path d="M694.121 200.41C703.494 200.033 712.018 199.967 720.507 204.505C729.186 209.145 735.274 217.477 738.048 226.836C741.358 238 740.495 251.359 734.8 261.628C729.492 271.196 721.611 276.175 711.328 279.08C702.305 280.676 692.952 279.825 684.784 275.469C676.271 270.928 670.414 263.228 667.645 254.051C664.19 242.601 665.171 228.999 670.963 218.457C676.063 209.175 684.073 203.339 694.121 200.41ZM897.353 191.581C905.679 191.041 915.624 192.039 922.67 196.895C926.279 199.385 929.007 202.92 929.727 207.323C930.437 211.707 929.057 216.198 926.479 219.751C919.252 229.728 905.969 231.203 894.744 232.962C886.058 234.438 874.654 235.694 865.925 234.736C863.576 234.478 862.239 234.504 860.745 232.622C859.95 224.202 861.55 216.573 866.42 209.56C873.734 199.024 885.079 193.821 897.353 191.581Z" fill="#0377D9"/>
<path d="M1233.93 227.172C1221.73 222.434 1210.38 218.735 1197.09 218.763C1184.61 218.789 1171.81 221.709 1162.81 230.921C1156.94 236.939 1153.73 244.751 1153.85 253.177C1153.9 257.361 1154.8 261.491 1156.47 265.325C1158.15 269.159 1160.57 272.618 1163.61 275.499C1171.56 283.109 1182.34 285.646 1193.09 285.323C1202.65 285.036 1211.73 282.227 1219.97 277.402C1249.59 260.039 1282.32 214.591 1306.76 188.788C1335.78 158.158 1369.81 138.759 1412.76 137.656C1445.16 136.823 1476.32 147.396 1499.99 170.008C1525.01 193.915 1542.71 229.707 1543.42 264.526C1543.99 292.827 1534.36 320.224 1514.57 340.763C1511.52 343.929 1506.67 349.018 1501.94 348.949C1493.86 348.831 1483.78 335.575 1478.78 330.104C1474.52 333.725 1470.39 336.584 1465.47 339.217C1450.61 346.46 1434.7 348.522 1418.35 348.174C1392.54 347.624 1361.82 341.493 1343.26 322.155C1352.56 306.242 1367.02 292.041 1378.45 277.496C1380.45 278.16 1383.12 279.326 1385.1 280.154C1413.54 292.002 1461.19 292.929 1459.84 250.725C1459.08 226.887 1439.92 219.509 1418.83 220.414C1384.24 221.897 1361.53 256.253 1339.95 279.237C1303.62 320.795 1263.9 350.431 1207.63 354.905C1138.71 360.385 1079.78 321.931 1074.58 249.014C1071.31 203.318 1098.96 165.315 1140.27 147.232C1155.62 140.516 1169.62 138.528 1186.19 137.728C1193.16 137.628 1200.13 138.053 1207.04 138.999C1233.89 142.552 1265.13 157.615 1282.05 179.637C1268.26 195.232 1250 214.195 1233.93 227.172Z" fill="white"/>
<path d="M1497.5 248.393C1499.45 248.246 1501.41 248.175 1503.37 248.181C1511.53 248.275 1520.93 251.171 1526.66 257.202C1532.25 263.073 1534.3 271.493 1534.11 279.413C1533.61 299.259 1520.94 318.879 1507.01 332.187C1505.99 333.135 1504.76 333.718 1503.53 334.373C1502.48 334.144 1501.45 333.81 1500.52 333.25C1488.74 326.189 1478.78 309.837 1475.21 296.871C1472.23 286.07 1471.6 272.415 1477.39 262.4C1481.97 254.483 1488.9 250.629 1497.5 248.393Z" fill="#0377D9"/>
<path d="M1501.15 264.318C1503.56 264.459 1506.33 264.444 1508.6 265.303C1512.21 266.668 1515.06 269.758 1516.57 273.264C1517.35 275.081 1517.76 277.039 1517.75 279.017C1517.75 280.995 1517.34 282.952 1516.55 284.765C1514.46 289.658 1511.12 291.61 1506.44 293.417C1504.58 293.35 1502.58 293.296 1500.77 292.86C1497.2 292.006 1494.03 289.485 1492.16 286.354C1491.2 284.707 1490.58 282.879 1490.35 280.984C1490.12 279.089 1490.29 277.168 1490.83 275.338C1492.5 269.609 1496.24 267.03 1501.15 264.318Z" fill="white"/>
<path d="M1432.71 173.249C1435.9 173.148 1438.97 173.315 1442.12 173.863C1465.56 177.943 1485.45 190.166 1499.02 209.715C1502.99 215.422 1507.06 221.438 1505.75 228.712C1503.89 231.407 1502.5 231.179 1499.48 231.874L1486.83 234.613C1479.28 218.146 1466.97 201.321 1447.88 198.102C1442.69 197.226 1435.47 197.464 1430.79 195.163C1429.06 194.307 1428.07 193.408 1427.53 191.54C1425.93 185.97 1430.02 178.013 1432.71 173.249ZM1114.35 198.782C1120.64 201.338 1127.91 210.945 1132.44 216.178C1120.21 232.518 1118.72 244.829 1117.58 264.676C1115.99 266.702 1112.37 266.422 1109.81 266.73C1106.18 267.715 1102.08 268.098 1098.37 268.747C1095.91 261.393 1094.42 254.145 1094.35 246.36C1094.17 227.679 1101.41 211.949 1114.35 198.782ZM1128.94 281.1C1129.58 281.233 1144.09 296.711 1148.26 299.413C1157.05 305.107 1166.64 307.833 1176.77 309.952C1175.67 314.822 1174.46 324.265 1170.36 327.325C1167.88 329.175 1165.63 328.185 1162.81 327.722C1140.79 321.846 1124.42 311.858 1111.5 292.809C1116.43 287.767 1122.87 284.557 1128.94 281.1ZM1242.46 294.1C1248.3 298.66 1250.85 305.271 1253.49 311.936C1241.97 324.138 1225.5 327.179 1209.83 330.803C1209.15 330.76 1208.36 330.843 1207.78 330.486C1203.1 327.623 1201.04 316.636 1199.54 311.5C1215.25 307.435 1228.26 301.886 1242.46 294.1ZM1166.6 170.367C1170.69 169.935 1174.92 169.905 1179.03 169.684C1181.38 176.658 1181.17 184.088 1181.04 191.348C1169.8 194.533 1159.24 197.601 1149.04 203.518L1147.85 203.654C1142.44 200.233 1136.97 190.788 1133.51 185.45C1143.44 177.098 1154.33 173.72 1166.6 170.367ZM1392.61 176.525C1393.88 176.452 1394.93 176.49 1396.17 176.815C1398.64 177.466 1399.86 178.637 1401.13 180.863C1403.54 185.09 1406.18 190.503 1404.71 195.486C1404.48 196.262 1403.88 196.229 1403.18 196.489C1392.11 200.595 1381.2 204.277 1370.71 209.78C1370.52 209.686 1370.24 209.559 1370.05 209.441C1366.47 207.26 1359.66 201.732 1358.67 197.488C1358.15 195.219 1358.74 192.997 1360.06 191.114C1365.71 183.021 1383.27 177.992 1392.61 176.525ZM1291.4 255.068C1295.51 257.05 1301.97 260.662 1304.88 264.163C1306.5 266.11 1307.6 268.48 1307.32 271.064C1306.37 279.693 1288.12 292.049 1281.54 297.461C1280.72 298.213 1280.14 298.129 1279.05 298.28C1272.86 294.92 1268.6 287.519 1264.68 281.827C1274.11 273.4 1281.98 263.47 1291.4 255.068ZM1205.05 169.645C1220.65 169.196 1236.68 174.613 1249.71 182.993C1247.44 187.295 1244.88 191.12 1241.97 195.018L1236.73 200.898C1232.6 198.97 1228.22 197.111 1223.83 195.912C1218.36 194.416 1211.12 194.817 1206.42 191.55C1201.73 185.787 1204.35 176.496 1205.05 169.645ZM1336.93 209.881C1337.08 209.919 1337.23 209.951 1337.37 209.994C1344.2 212.005 1348.99 220.677 1352.22 226.422C1347.25 233.287 1335.8 247.503 1327.9 250.232C1321.01 246.751 1315.33 242.33 1309.77 236.984C1318.05 227.461 1326.32 216.92 1336.93 209.881Z" fill="#0377D9"/>
<path d="M175.949 135.684C198.962 135.288 224.369 137.205 245.111 147.989C255.876 153.586 264.835 161.38 268.479 173.259C273.575 189.872 271.363 305.772 267.774 328.635C265.593 342.531 261.674 356.346 254.968 368.762C243.017 390.89 223.724 405.947 199.706 413.078C167.808 422.548 125.704 420.899 96.0609 404.629C86.6229 399.449 78.1159 391.268 75.1029 380.66C72.4029 371.153 74.3399 363.06 79.0159 354.625C96.3359 334.933 108.908 344.038 129.35 350.106C145.524 353.509 165.479 354.895 181.148 348.968C191.851 344.92 202.161 335.047 206.369 324.37C208.026 320.165 210.993 309.132 209.282 305.005C191.452 311.974 189.438 315.314 168.551 317.319C78.0149 326.009 33.0649 240.553 91.7849 171.055C111.644 147.551 144.215 136.934 175.949 135.684Z" fill="white"/>
<path d="M167.089 197.345L167.67 197.288C176.717 196.444 189.653 196.03 197.066 202.247L197.448 202.574C198.154 203.172 198.679 203.71 198.994 204.596C202.004 213.055 201.083 247.125 197.558 255.208C190.695 261.271 179.143 261.829 170.411 262.314C163.35 261.598 156.759 260.723 150.507 257.137C144.021 253.417 139.097 247.661 137.186 240.362C135.014 232.066 136.657 222.791 140.958 215.446C146.872 205.346 156.054 200.189 167.089 197.345Z" fill="#0377D9"/>
<path d="M1650.24 138.648C1669.91 135.228 1695.26 142.11 1712.01 151.864C1735.85 165.712 1753.25 188.43 1760.4 215.059C1767.49 242.441 1764.94 274.545 1750.28 299.118C1737.06 321.25 1715.46 336.116 1690.7 342.361C1663.89 349.123 1636.98 346.369 1613.09 332.173C1610.53 348.626 1612.59 364.992 1613.48 381.513C1614.02 391.374 1613.97 400.817 1607.07 408.516C1598.69 413.724 1592.07 415.527 1582.19 415.619C1570.13 415.731 1556.95 415.038 1547.88 406.001C1535.13 393.301 1538.29 360.948 1538.26 343.743C1553.82 322.151 1564.42 298.016 1566.65 271.273C1570.13 229.437 1558.76 185.525 1531.33 153.181C1539.76 147.795 1548.19 143.508 1558.04 141.347C1567.37 139.3 1578.7 138.809 1587.05 144.219C1593.58 148.454 1595.51 153.764 1597.03 160.973C1610.99 145.889 1630.47 140.688 1650.24 138.648Z" fill="white"/>
<path d="M1642.05 200.424C1651.75 199.849 1661.24 200.935 1669.97 205.429C1680.27 210.725 1687.59 219.719 1691.04 230.741C1694.35 241.305 1693.93 253.424 1688.75 263.321C1683.05 274.167 1673.94 279.118 1662.68 282.659C1651.88 284.684 1638.41 284.063 1628.63 278.642C1620.46 274.107 1615.22 266.703 1612.7 257.777C1609.2 245.382 1609.72 229.956 1616.22 218.599C1622.14 208.254 1630.92 203.515 1642.05 200.424Z" fill="#0377D9"/>
<path d="M440.01 131.432C452.215 130.226 472.967 131.451 482.114 140.045C490.499 147.925 488.087 173.535 488.294 184.854L490.022 248.2C490.658 265.125 491.5 282.041 492.545 298.946C493.353 310.309 494.916 322.578 494.879 333.822C480.906 348.818 442.372 352.421 431.882 331.113C429.651 326.582 427.897 316.286 426.69 310.978C417.183 325.528 401.97 340.373 384.72 344.309C336.456 355.322 304.142 335.057 291.098 289.55C283.428 260.862 284.166 180.233 284.893 147.835C287.907 144.22 290.032 142.658 293.801 140.155C306.009 132.049 353.327 134.803 355.192 153.322C358.453 185.724 352.364 223.729 356.507 256.758C359.754 282.647 405.228 283.512 413.059 259.882C417.218 247.607 416.513 238.575 416.292 225.962C415.972 207.48 415.678 188.722 415.367 170.273C414.956 145.967 414.358 137.852 440.01 131.432ZM1010.15 54.5947C1013.25 54.4387 1016.34 54.3497 1019.45 54.3297C1028.39 54.3447 1039.46 56.4407 1045.92 63.1197C1055.57 73.0817 1051.28 124.262 1051.24 138.956L1051.47 209.69C1051.71 261.127 1046.82 292.794 1086.59 332.798C1078.61 338.913 1070.79 340.847 1061.15 342.927C1008.59 352.116 991.487 298.893 989.348 256.983C986.309 197.53 986.359 136.763 985.64 77.1737C985.46 61.5557 997.244 57.7637 1010.15 54.5947ZM535.66 141.493C547.67 140.822 562.165 139.352 572.866 145.927C577.873 149.003 580.504 153.139 581.815 158.795C584.081 168.577 583.036 180.55 583.127 190.645C583.291 208.958 583.333 227.282 583.719 245.592C584.278 272.14 587.038 299.122 586.674 325.593C586.633 328.593 586.445 330.274 584.815 332.83C580.451 339.674 572.453 341.435 565.067 343.021C553.268 345.373 536.515 344.783 526.118 338.095C523.567 336.454 520.658 334.169 520.012 331.077C516.168 312.645 512.779 158.019 516.689 151.475C520.17 145.652 529.534 143.001 535.66 141.493ZM544.594 54.4597C555.336 53.7967 564.148 53.6827 573.982 58.9947C590.805 68.0807 597.158 88.7357 587.597 105.518C580.968 117.151 572.001 120.72 559.606 124.221C539.476 127.877 515.512 119.334 510.923 97.3867C509.986 93.0326 509.916 88.5364 510.719 84.1556C511.522 79.7747 513.181 75.5953 515.602 71.8567C522.6 61.1777 532.646 57.0177 544.594 54.4597Z" fill="white"/>
</g>
</g>
<defs>
<clipPath id="clip0_65_1001">
<rect width="1825" height="481" fill="white"/>
</clipPath>
</defs>
</svg>
